<svg id="Capa_1" enable-background="new 0 0 512.004 512.004" height="512" viewBox="0 0 512.004 512.004" width="512" xmlns="http://www.w3.org/2000/svg" xmlns:xlink="http://www.w3.org/1999/xlink"><linearGradient id="SVGID_1_" gradientUnits="userSpaceOnUse" x1="256.002" x2="256.002" y1="512.004" y2="0"><stop offset="0" stop-color="#fd5900"/><stop offset="1" stop-color="#ffde00"/></linearGradient><g><g><path d="m439.341 76.628c-24.009-24.009-53.497-43.689-85.274-56.912-31.274-13.013-64.848-19.815-97.065-19.713-58.257-.266-118.697 20.963-165.98 61.502l-22.371-37.286c-3.267-5.445-9.611-8.244-15.832-6.986-6.224 1.257-10.982 6.296-11.88 12.582l-21.212 148.493c-1.41 9.865 7.049 18.388 16.97 16.97l148.493-21.213c6.285-.898 11.325-5.656 12.582-11.88s-1.541-12.565-6.986-15.832l-35.418-21.251c28.007-21.941 63.469-35.1 102.157-35.1 56.054 0 93.272 25.431 114.641 46.8 31.317 31.317 49.948 75.49 49.837 118.162-.021 8.297 6.705 15.039 15 15.039h60c8.262 0 14.968-6.681 15-14.942.265-69.13-25.579-131.351-72.662-178.433zm12.057 163.375c-3.756-45.623-24.833-91.226-58.021-124.414-36.373-36.373-83.339-55.586-135.777-55.586-87.271 0-137.122 56.181-138.48 57.095-5.389 5.376-5.896 13.937-1.181 19.912 1.954 2.475 4.546 4.182 7.375 5.048l13.808 8.285-86.869 12.41 12.41-86.869 8.396 13.994c.881 2.798 2.587 5.361 5.047 7.291 5.989 4.7 14.551 4.167 19.911-1.24 41.149-41.505 100.558-66.132 158.927-65.924h.116c58.175-.232 118.365 25.136 161.068 67.839 27.358 27.357 59.566 73.663 63.48 142.161h-30.21zm23.948 76.855-148.493 21.213c-6.286.898-11.325 5.656-12.582 11.88s1.541 12.565 6.986 15.832l35.303 21.182c-28.506 22.31-64.129 35.069-102.08 35.038-56.055 0-93.272-25.431-114.641-46.8-31.318-31.317-49.948-75.49-49.837-118.162.021-8.297-6.704-15.039-15-15.039h-60c-8.262 0-14.968 6.681-15 14.942-.266 69.129 25.578 131.35 72.661 178.432 24.009 24.009 53.497 43.689 85.274 56.912 31.015 12.905 64.275 19.715 96.256 19.715 34.52 0 67.405-6.66 98.382-19.518 24.881-10.329 48.207-24.672 68.38-41.963l22.437 37.394c3.267 5.445 9.605 8.244 15.832 6.986 6.224-1.257 10.982-6.296 11.88-12.582l21.213-148.492c1.412-9.88-7.069-18.387-16.971-16.97zm-27.967 119.396-8.393-13.988c-1.003-3.29-3.132-6.232-6.189-8.214-5.959-3.863-13.811-3.018-18.811 2.026-39.634 39.976-97.609 65.926-159.807 65.926-57.915 0-117.788-25.325-160.304-67.84-27.357-27.357-59.566-73.663-63.48-142.161h30.21c3.756 45.623 24.833 91.226 58.021 124.414 36.373 36.373 83.339 55.587 135.777 55.586 52.776 0 101.091-20.884 136.116-54.911 8.715-6.007 9.128-19.439-.135-25.457-1.331-.865-2.756-1.494-4.223-1.895l-13.242-7.945 86.87-12.41z" fill="url(#SVGID_1_)"/></g></g></svg>