<svg height="490pt" viewBox="-21 0 490 490.65067" width="490pt" xmlns="http://www.w3.org/2000/svg">
  <style>path { opacity: 0.8 }</style>
  <path d="m437.664062 255.984375v117.332031c0 58.882813-47.785156 106.667969-106.667968 106.667969h-49.917969c-22.613281 0-44.375-8.960937-60.375-24.960937l-151.890625-151.894532c-8.320312-8.316406-8.320312-21.972656 0-30.292968 15.785156-15.785157 40.746094-17.492188 58.664062-4.050782l54.1875 40.53125v-202.664062c0-17.707032 14.292969-32 32-32 17.707032 0 32 14.292968 32 32v106.664062c0-9.386718 4.054688-17.917968 10.667969-23.679687 5.546875-5.121094 13.011719-8.320313 21.332031-8.320313 17.492188 0 31.574219 13.867188 32 31.359375v21.976563c0-9.386719 4.054688-17.921875 10.667969-23.683594 5.546875-5.117188 13.011719-8.316406 21.332031-8.316406 17.492188 0 31.574219 13.863281 32 31.359375v21.972656c0-9.386719 4.054688-17.921875 10.667969-23.679687 5.546875-5.121094 13.011719-8.320313 21.332031-8.320313 17.707032 0 32 14.292969 32 32zm0 0" fill="#ffcc80"/><path d="m416.332031 63.984375h-128c-5.890625 0-10.667969-4.777344-10.667969-10.667969 0-5.886718 4.777344-10.664062 10.667969-10.664062h128c5.886719 0 10.664063 4.777344 10.664063 10.664062 0 5.890625-4.777344 10.667969-10.664063 10.667969zm0 0"/><path d="m373.664062 106.652344c-2.730468 0-5.460937-1.046875-7.550781-3.117188-4.160156-4.160156-4.160156-10.921875 0-15.082031l35.132813-35.136719-35.113282-35.113281c-4.160156-4.160156-4.160156-10.921875 0-15.082031 4.160157-4.160156 10.921876-4.160156 15.082032 0l42.667968 42.664062c4.160157 4.160156 4.160157 10.925782 0 15.085938l-42.667968 42.664062c-2.089844 2.070313-4.820313 3.117188-7.550782 3.117188zm0 0"/><path d="m138.996094 63.984375h-128c-5.886719 0-10.664063-4.777344-10.664063-10.667969 0-5.886718 4.777344-10.664062 10.664063-10.664062h128c5.890625 0 10.667968 4.777344 10.667968 10.664062 0 5.890625-4.777343 10.667969-10.667968 10.667969zm0 0"/><path d="m53.664062 106.652344c-2.730468 0-5.460937-1.046875-7.550781-3.117188l-42.667969-42.664062c-4.160156-4.160156-4.160156-10.925782 0-15.085938l42.667969-42.664062c4.160157-4.160156 10.921875-4.160156 15.082031 0 4.160157 4.160156 4.160157 10.921875 0 15.082031l-35.117187 35.113281 35.117187 35.117188c4.160157 4.160156 4.160157 10.921875 0 15.082031-2.070312 2.089844-4.800781 3.136719-7.53125 3.136719zm0 0"/><path d="m330.996094 490.652344h-49.984375c-25.257813 0-50.003907-10.242188-67.882813-28.117188l-151.933594-151.917968c-12.480468-12.480469-12.480468-32.765626 0-45.246094 19.457032-19.457032 50.707032-21.675782 72.726563-5.183594l37.074219 27.796875v-181.332031c0-23.53125 19.136718-42.667969 42.667968-42.667969s42.667969 19.136719 42.667969 42.667969v69.738281c6.269531-3.648437 13.566407-5.738281 21.332031-5.738281 18.582032 0 34.433594 11.945312 40.277344 28.5625 6.785156-4.5625 14.953125-7.230469 23.722656-7.230469 18.582032 0 34.433594 11.945313 40.277344 28.566406 6.785156-4.566406 14.953125-7.234375 23.722656-7.234375 23.53125 0 42.667969 19.136719 42.667969 42.667969v117.332031c0 64.683594-52.628906 117.335938-117.335937 117.335938zm-230.398438-220.203125c-8.875 0-17.707031 3.390625-24.320312 10.003906-4.160156 4.160156-4.160156 10.921875 0 15.082031l151.9375 151.914063c13.90625 13.890625 33.152344 21.867187 52.796875 21.867187h49.984375c52.929687 0 96-43.070312 96-96v-117.332031c0-11.777344-9.578125-21.332031-21.332032-21.332031-11.753906 0-21.332031 9.554687-21.332031 21.332031v10.667969c0 5.886718-4.78125 10.664062-10.667969 10.664062-5.886718 0-10.667968-4.777344-10.667968-10.664062v-32c0-11.777344-9.578125-21.335938-21.332032-21.335938-11.753906 0-21.332031 9.558594-21.332031 21.335938v32c0 5.886718-4.78125 10.664062-10.667969 10.664062-5.886718 0-10.667968-4.777344-10.667968-10.664062v-53.335938c0-11.773437-9.578125-21.332031-21.332032-21.332031-11.753906 0-21.332031 9.558594-21.332031 21.332031v53.335938c0 5.886718-4.78125 10.664062-10.667969 10.664062-5.886718 0-10.667968-4.777344-10.667968-10.664062v-160c0-11.777344-9.578125-21.335938-21.332032-21.335938-11.753906 0-21.332031 9.558594-21.332031 21.335938v202.664062c0 4.03125-2.285156 7.722656-5.890625 9.535156-3.625 1.792969-7.957031 1.386719-11.15625-1l-54.121094-40.597656c-6.125-4.566406-13.355468-6.804687-20.566406-6.804687zm0 0"/></svg>
